<svg width="28" height="30" viewBox="0 0 28 30" fill="none" xmlns="http://www.w3.org/2000/svg">
<path d="M23.66 2.45615C23.66 1.09957 22.4609 0 20.9835 0H2.57071C1.15087 0 0 1.05532 0 2.3573V22.8443C0 24.2009 1.19912 25.3005 2.67851 25.3005H20.9805C22.4599 25.3005 23.659 24.2009 23.659 22.8443L23.66 2.45615ZM20.9918 20.9879C20.9918 22.0187 20.0791 22.8547 18.9559 22.8547H4.70305C3.57888 22.8547 2.66722 22.0178 2.66722 20.9879V4.24954C2.66722 3.21869 3.57888 2.38272 4.70305 2.38272H18.9559C20.0791 2.38272 20.9897 3.21869 20.9897 4.24954L20.9918 20.9879Z" fill="black" fill-opacity="0.5"/>
<path d="M24.1018 4.7002V7.14693C24.8793 7.14693 25.5123 7.75226 25.5123 8.49785V26.267C25.5123 27.0126 24.8793 27.6179 24.1018 27.6179H9.24734C8.50525 27.6179 7.90274 27.0418 7.90274 26.3301H5.41504V27.5436C5.41504 28.9002 6.56306 29.9997 7.97941 29.9997H25.4326C26.847 29.9997 27.995 28.8992 27.995 27.5436V7.15634C27.995 5.79977 26.847 4.7002 25.4326 4.7002H24.1018Z" fill="black" fill-opacity="0.5"/>
<path d="M6.29477 7.51516H18.6135C19.3701 7.51516 19.9822 7.07863 19.9822 6.52555C19.9822 5.97246 19.3701 5.53516 18.6135 5.53516H6.29477C5.53816 5.53516 4.92603 5.97246 4.92603 6.52555C4.9271 7.07863 5.53816 7.51516 6.29477 7.51516Z" fill="black" fill-opacity="0.5"/>
<path d="M6.29477 11.5081H18.6135C19.3701 11.5081 19.9822 11.069 19.9822 10.5181C19.9822 9.96477 19.3701 9.52808 18.6135 9.52808H6.29477C5.53816 9.52808 4.92603 9.96477 4.92603 10.5181C4.9271 11.069 5.53816 11.5081 6.29477 11.5081Z" fill="black" fill-opacity="0.5"/>
<path d="M6.29477 15.4998H18.6135C19.3701 15.4998 19.9822 15.0615 19.9822 14.5098C19.9822 13.9573 19.3701 13.5198 18.6135 13.5198H6.29477C5.53816 13.5198 4.92603 13.9573 4.92603 14.5098C4.9271 15.0615 5.53816 15.4998 6.29477 15.4998Z" fill="black" fill-opacity="0.5"/>
<path d="M6.29477 19.3594H18.6135C19.3701 19.3594 19.9822 18.9224 19.9822 18.3698C19.9822 17.8187 19.3701 17.3794 18.6135 17.3794H6.29477C5.53816 17.3794 4.92603 17.8187 4.92603 18.3698C4.9271 18.9232 5.53816 19.3594 6.29477 19.3594Z" fill="black" fill-opacity="0.5"/>
</svg>
