<svg width="30" height="30" viewBox="0 0 30 30" fill="none" xmlns="http://www.w3.org/2000/svg">
<path d="M9.60647 0.128878C9.4109 0.22102 9.29342 0.331223 9.2023 0.515509C9.07832 0.748774 9.0653 0.889896 9.0653 1.98184V3.19041H5.98068C2.62205 3.19041 2.47854 3.20265 1.80037 3.54612C1.35683 3.76684 0.580709 4.49694 0.365284 4.88939C-0.0193592 5.61337 0.000165858 4.95061 0.000165858 16.5765C0.000165858 24.1469 0.0196909 27.3248 0.072083 27.5581C0.248134 28.3372 0.972186 29.2329 1.74798 29.6195C2.55664 30.0245 1.66988 29.9997 14.9999 29.9997C28.2519 29.9997 27.4562 30.0181 28.1995 29.644C28.6821 29.4046 29.3603 28.7728 29.5952 28.3555C30.0257 27.5948 29.9997 28.3555 29.9997 16.5949C29.9997 4.95092 30.0192 5.61337 29.6346 4.88939C29.4195 4.49664 28.6434 3.76684 28.1998 3.54582C27.5216 3.20235 27.3781 3.1901 24.0195 3.1901H20.9349V1.98153C20.9349 0.889591 20.9219 0.748468 20.7979 0.515203C20.6609 0.23908 20.2697 0 19.9567 0C19.6436 0 19.2525 0.239388 19.1155 0.515203C18.9915 0.748468 18.9785 0.889591 18.9785 1.98153V3.1901H14.9999H11.0217V1.98153C11.0217 0.889591 11.0087 0.748468 10.8847 0.515203C10.7868 0.325102 10.6761 0.220715 10.4737 0.128572C10.1281 -0.030611 9.95206 -0.0306129 9.60647 0.128878ZM9.0653 5.99388C9.0653 7.15347 9.14991 7.39255 9.61298 7.60133C9.95857 7.76082 10.1281 7.76082 10.4737 7.60133C10.9368 7.39286 11.0214 7.15347 11.0214 5.99388V5.03082H14.9999H18.9782V5.99388C18.9782 6.84062 18.9912 6.98786 19.1152 7.2147C19.2522 7.49082 19.6436 7.7299 19.9564 7.7299C20.2691 7.7299 20.6606 7.49051 20.7976 7.2147C20.9215 6.98755 20.9346 6.84062 20.9346 5.99388V5.0247L24.1562 5.04306C27.2994 5.06143 27.3843 5.06755 27.5604 5.19031C27.6583 5.25796 27.8018 5.39266 27.8734 5.4848C28.0039 5.64429 28.0104 5.74255 28.0299 7.98184L28.0495 10.3068H14.9999H1.95657V8.07368C1.95657 5.7548 1.96959 5.6198 2.23708 5.34368C2.53712 5.03694 2.55664 5.03694 5.92178 5.03082H9.0653V5.99388ZM28.0299 19.8404C28.0104 27.503 28.0104 27.5397 27.8734 27.7053C27.8015 27.7975 27.658 27.9325 27.5604 27.9998L27.3843 28.1287L15.0845 28.1471L2.78476 28.1593L2.50425 28.0304C2.30216 27.9383 2.1912 27.8342 2.09325 27.6438C1.95625 27.386 1.95625 27.3309 1.95625 19.7666V12.1469H14.9999H28.043L28.0299 19.8404Z" fill="black" fill-opacity="0.5"/>
<path d="M8.0871 15.7669V16.8711H9.61981H11.1525V15.7669V14.6627H9.61981H8.0871V15.7669Z" fill="black" fill-opacity="0.5"/>
<path d="M13.4347 15.7669V16.8711H14.9674H16.5001V15.7669V14.6627H14.9674H13.4347V15.7669Z" fill="black" fill-opacity="0.5"/>
<path d="M18.8477 15.7669V16.8711H20.3804H21.9128V15.7669V14.6627H20.3804H18.8477V15.7669Z" fill="black" fill-opacity="0.5"/>
<path d="M8.0871 20.0917V21.1653H9.61981H11.1525V20.0917V19.0181H9.61981H8.0871V20.0917Z" fill="black" fill-opacity="0.5"/>
<path d="M13.4347 20.0917V21.1653H14.9674H16.5001V20.0917V19.0181H14.9674H13.4347V20.0917Z" fill="black" fill-opacity="0.5"/>
<path d="M18.8477 20.0917V21.1653H20.3804H21.9128V20.0917V19.0181H20.3804H18.8477V20.0917Z" fill="black" fill-opacity="0.5"/>
<path d="M8.0871 24.4477V25.5212H9.61981H11.1525V24.4477V23.3741H9.61981H8.0871V24.4477Z" fill="black" fill-opacity="0.5"/>
<path d="M13.4347 24.4477V25.5212H14.9674H16.5001V24.4477V23.3741H14.9674H13.4347V24.4477Z" fill="black" fill-opacity="0.5"/>
<path d="M18.8477 24.4477V25.5212H20.3804H21.9128V24.4477V23.3741H20.3804H18.8477V24.4477Z" fill="black" fill-opacity="0.5"/>
</svg>
