<svg width="30" height="20" viewBox="0 0 30 20" fill="none" xmlns="http://www.w3.org/2000/svg">
    <path d="M0.695628 7.85785L13.3164 14.5673C14.2439 15.0618 15.7561 15.0618 16.6836 14.5673L29.3044 7.85785C30.2319 7.36331 30.2319 6.56198 29.3044 6.06744L16.6836 0.370909C15.7561 -0.123636 14.247 -0.123636 13.3164 0.370909L0.695628 6.06744C-0.231876 6.56198 -0.231876 7.36331 0.695628 7.85785ZM14.9939 1.90215L26.7116 6.96397C26.73 6.91636 26.8065 6.99306 26.7116 6.96397L16.1571 12.7081C15.5143 13.036 14.4704 13.036 13.8276 12.7081L3.27611 6.96397L14.9939 1.90215ZM29.3044 11.1293L29.0625 11.0208L16.6775 17.6059C15.75 18.1005 14.2378 18.1005 13.3103 17.6059L0.93133 11.0235L0.695628 11.1293C-0.231876 11.6238 -0.231876 12.4251 0.695628 12.9197L13.3164 19.6291C14.2439 20.1236 15.7561 20.1236 16.6836 19.6291L29.3044 12.9197C30.2319 12.4251 30.2319 11.6238 29.3044 11.1293Z"
          fill="#3C4DDB"/>
</svg>
